<?xml version="1.0" encoding="UTF-8"?>
<svg id="Layer_2" data-name="Layer 2" xmlns="http://www.w3.org/2000/svg" viewBox="0 0 40.33 16.38">
  <defs>
    <style>
      .cls-1 {
        fill: #0f1e5a;
      }

      .cls-2 {
        fill: #fcb1e3;
      }

      .cls-3 {
        fill: #d99e82;
      }

      .cls-4 {
        fill: #e94548;
      }

      .cls-5 {
        fill: #ffd983;
      }

      .cls-6 {
        fill: #a6d388;
      }
    </style>
  </defs>
  <g id="Layer_1-2" data-name="Layer 1">
    <g>
      <g>
        <path class="cls-3" d="M38.35,16.13H1.97l-1.72-1.72v-4.34l1.72-1.72h36.38l1.72,1.72v4.34l-1.72,1.72Z"/>
        <path class="cls-1" d="M38.46,16.38H1.87l-1.87-1.87v-4.55l1.87-1.87h36.59l1.87,1.87v4.55l-1.87,1.87ZM2.08,15.88h36.17l1.58-1.58v-4.13l-1.58-1.58H2.08l-1.58,1.58v4.13l1.58,1.58Z"/>
      </g>
      <g>
        <g>
          <path class="cls-2" d="M15.92,8.34H5.33c-.9-2.11-.48-4.64,1.25-6.35,2.27-2.23,5.91-2.2,8.14.06.22.22.42.46.59.71,1.18,1.65,1.38,3.77.61,5.58Z"/>
          <path class="cls-1" d="M16.08,8.59H5.16l-.06-.15c-.97-2.28-.46-4.88,1.3-6.62,2.36-2.32,6.17-2.29,8.49.06.23.23.44.48.62.75,1.2,1.68,1.45,3.91.63,5.82l-.07.15ZM5.5,8.09h10.25c.67-1.71.43-3.69-.64-5.18-.17-.24-.35-.47-.56-.68C12.41.07,8.92.05,6.75,2.17c-1.58,1.56-2.06,3.87-1.26,5.92Z"/>
        </g>
        <g>
          <path class="cls-5" d="M35.11,8.34h-10.52c-.91-2.04-.54-4.38.85-6.04.39-.47.87-.88,1.42-1.22,2.72-1.65,6.26-.79,7.91,1.93,1.02,1.68,1.08,3.67.34,5.33Z"/>
          <path class="cls-1" d="M35.27,8.59h-10.84l-.07-.15c-.93-2.08-.58-4.55.89-6.3.4-.49.9-.91,1.48-1.27,2.84-1.72,6.54-.82,8.26,2.01,1.02,1.69,1.16,3.76.35,5.56l-.07.15ZM24.75,8.09h10.19c.66-1.61.52-3.45-.39-4.95-1.57-2.59-4.97-3.42-7.57-1.85-.53.33-.99.72-1.36,1.17-1.31,1.56-1.65,3.76-.88,5.63Z"/>
        </g>
        <g>
          <path class="cls-6" d="M25.19,8.34h-10.4c-.8-1.81-.62-3.93.52-5.58.23-.33.5-.64.8-.93,2.24-2.12,5.75-2.09,7.96.06.13.13.25.27.37.41,1.42,1.74,1.67,4.09.75,6.04Z"/>
          <path class="cls-1" d="M25.35,8.59h-10.72l-.07-.15c-.84-1.89-.63-4.13.54-5.82.23-.33.51-.66.83-.97,2.34-2.22,5.99-2.19,8.31.06.14.14.26.28.38.42,1.45,1.78,1.76,4.25.79,6.31l-.07.14ZM14.95,8.09h10.07c.81-1.85.51-4.05-.78-5.63-.11-.13-.23-.26-.35-.39C21.77,0,18.42-.02,16.28,2.02c-.3.29-.55.59-.77.89-1.04,1.51-1.25,3.48-.56,5.19Z"/>
        </g>
        <g>
          <ellipse class="cls-6" cx="15.28" cy="8.53" rx="1.28" ry="1.07"/>
          <path class="cls-1" d="M15.28,9.85c-.84,0-1.53-.59-1.53-1.32s.69-1.32,1.53-1.32,1.53.59,1.53,1.32-.68,1.32-1.53,1.32ZM15.28,7.71c-.57,0-1.03.37-1.03.82s.46.82,1.03.82,1.03-.37,1.03-.82-.46-.82-1.03-.82Z"/>
        </g>
        <g>
          <ellipse class="cls-2" cx="5.54" cy="7.78" rx="1.07" ry="1.28" transform="translate(-3.52 10.8) rotate(-73)"/>
          <path class="cls-1" d="M5.66,9.12c-.17,0-.34-.03-.51-.08-.42-.13-.78-.41-.97-.77-.16-.3-.2-.63-.1-.94h0c.21-.7,1.04-1.06,1.85-.82.8.25,1.29,1.01,1.07,1.71-.11.35-.36.62-.72.77-.19.08-.4.12-.62.12ZM5.42,6.94c-.4,0-.75.21-.86.54h0c-.07.23,0,.43.07.56.13.25.38.44.68.53.27.08.55.07.78-.03.22-.09.38-.26.44-.46.13-.43-.2-.92-.74-1.09-.12-.04-.25-.06-.37-.06Z"/>
        </g>
        <g>
          <ellipse class="cls-6" cx="25.02" cy="8.53" rx="1.28" ry="1.07"/>
          <path class="cls-1" d="M25.02,9.85c-.84,0-1.53-.59-1.53-1.32s.68-1.32,1.53-1.32,1.53.59,1.53,1.32-.68,1.32-1.53,1.32ZM25.02,7.71c-.57,0-1.03.37-1.03.82s.46.82,1.03.82,1.03-.37,1.03-.82-.46-.82-1.03-.82Z"/>
        </g>
        <g>
          <ellipse class="cls-5" cx="34.79" cy="7.96" rx="1.28" ry="1.07" transform="translate(-.81 10.52) rotate(-17)"/>
          <path class="cls-1" d="M34.67,9.3c-.21,0-.42-.04-.62-.12-.36-.15-.62-.43-.72-.77-.21-.7.27-1.46,1.07-1.71.38-.12.78-.1,1.13.05.36.15.62.43.72.77.21.7-.27,1.46-1.07,1.71-.17.05-.34.08-.51.08ZM34.91,7.12c-.12,0-.24.02-.36.06-.54.17-.87.65-.74,1.09.06.2.22.37.44.46.24.1.52.11.78.03.54-.17.87-.65.74-1.09-.06-.2-.22-.37-.44-.46-.13-.06-.27-.08-.42-.08Z"/>
        </g>
        <g>
          <path class="cls-4" d="M10.36,5.72h-.91c0,.85.41,1.55.91,1.55s.91-.7.91-1.55h-.91Z"/>
          <path class="cls-1" d="M10.36,7.52c-.65,0-1.17-.79-1.17-1.8,0-.14.11-.25.25-.25h1.83c.14,0,.25.11.25.25,0,1.01-.51,1.8-1.17,1.8ZM9.71,5.97c.07.62.37,1.05.65,1.05s.58-.44.65-1.05h-1.3Z"/>
        </g>
        <g>
          <path class="cls-4" d="M20.01,6.25h-.91c0,.5.41.91.91.91s.91-.41.91-.91h-.91Z"/>
          <path class="cls-1" d="M20.01,7.42c-.64,0-1.17-.52-1.17-1.17,0-.14.11-.25.25-.25h1.83c.14,0,.25.11.25.25,0,.64-.52,1.17-1.17,1.17ZM19.4,6.5c.1.24.34.42.62.42s.52-.17.62-.42h-1.23Z"/>
        </g>
        <g>
          <ellipse class="cls-4" cx="29.85" cy="6.5" rx=".76" ry=".97"/>
          <path class="cls-1" d="M29.85,7.72c-.56,0-1.01-.55-1.01-1.22s.46-1.22,1.01-1.22,1.01.55,1.01,1.22-.46,1.22-1.01,1.22ZM29.85,5.77c-.28,0-.51.33-.51.72s.24.72.51.72.51-.33.51-.72-.24-.72-.51-.72Z"/>
        </g>
        <g>
          <path class="cls-1" d="M17.1,5.29c-.16,0-.31-.1-.36-.27-.06-.2.05-.41.25-.47l1.14-.35c.2-.06.41.05.47.25.06.2-.05.41-.25.47l-1.14.35s-.07.02-.11.02Z"/>
          <path class="cls-1" d="M22.92,5.29s-.07,0-.11-.02l-1.14-.35c-.2-.06-.31-.27-.25-.47.06-.2.27-.31.47-.25l1.14.35c.2.06.31.27.25.47-.05.16-.2.27-.36.27Z"/>
        </g>
        <g>
          <path class="cls-1" d="M7.42,5.3c-.12,0-.23-.05-.3-.16-.12-.17-.08-.4.09-.52l1-.72c.17-.12.4-.08.52.09.12.17.08.4-.09.52l-1,.72c-.07.05-.14.07-.22.07Z"/>
          <path class="cls-1" d="M13.31,5.3c-.08,0-.15-.02-.22-.07l-1-.72c-.17-.12-.21-.35-.09-.52.12-.17.36-.21.52-.09l1,.72c.17.12.21.35.09.52-.07.1-.19.16-.3.16Z"/>
        </g>
        <g>
          <path class="cls-1" d="M27.9,5.47c-.08,0-.15-.02-.22-.07l-1-.72c-.17-.12-.21-.35-.09-.52.12-.17.36-.21.52-.09l1,.72c.17.12.21.35.09.52-.07.1-.19.16-.3.16Z"/>
          <path class="cls-1" d="M31.79,5.47c-.12,0-.23-.05-.3-.16-.12-.17-.08-.4.09-.52l1-.72c.17-.12.4-.08.52.09s.08.4-.09.52l-1,.72c-.07.05-.14.07-.22.07Z"/>
        </g>
      </g>
      <g>
        <g>
          <g>
            <path class="cls-2" d="M4.09,14.21c-.28,0-.59-.09-.83-.39-.2.24-.5.39-.84.39-.46,0-.77-.35-.77-.86,0-.29.08-.65.15-.99.07-.33.15-.67.15-.93-.07,0-.12-.03-.17-.08-.05-.05-.05-.12-.04-.19.05-.41.44-.72.92-.72.39,0,.68.19.8.51.14-.3.51-.49.84-.49.55,0,.91.35.91.9s-.44,1.01-.94,1.28c.05.04.1.07.15.07.03-.07.06-.11.13-.14.02,0,.04-.01.07-.01.04,0,.08.01.12.04.22.12.34.35.34.65,0,.54-.45.99-.99.99ZM3.53,11.43c-.01.09-.03.2-.06.32.07-.09.11-.2.11-.28-.02-.01-.03-.03-.05-.05Z"/>
            <path class="cls-1" d="M2.67,10.68c.34,0,.62.18.62.62,0,.17-.08.48-.17.81.05-.04.11-.06.19-.06.06,0,.12.02.17.05.19-.15.34-.4.34-.62,0-.12-.05-.22-.17-.29.02-.28.36-.49.65-.49.38,0,.66.2.66.65,0,.51-.51.98-1.1,1.19.15.21.32.41.56.41.11,0,.17-.06.2-.14.17.09.21.28.21.43,0,.42-.34.74-.74.74-.74,0-.89-.77-.92-1.3-.06,0-.13-.02-.17-.05-.03.16-.05.3-.05.42,0,.23.16.27.3.27-.08.37-.39.67-.82.67s-.52-.34-.52-.61c0-.54.3-1.35.3-1.92,0-.14-.05-.25-.21-.25.03-.28.32-.5.67-.5M2.67,10.18c-.6,0-1.1.4-1.17.94-.02.14.03.28.12.39.02.03.05.05.08.07-.02.22-.08.47-.13.72-.08.36-.16.72-.16,1.05,0,.65.42,1.11,1.02,1.11.32,0,.61-.11.84-.29.29.25.63.29.83.29.69,0,1.24-.55,1.24-1.24,0-.34-.13-.63-.37-.81.3-.29.5-.66.5-1.08,0-.69-.47-1.15-1.16-1.15-.29,0-.59.11-.82.31-.2-.21-.48-.32-.82-.32h0Z"/>
          </g>
          <g>
            <path class="cls-2" d="M5.94,14.21c-.53,0-.9-.35-.9-.84,0-.34.17-.63.44-.78-.06-.11-.1-.24-.1-.38,0-.51.46-.87,1.12-.87.73,0,1.23.42,1.23,1.04,0,.15-.03.31-.06.46-.02.09-.03.16-.03.22.14,0,.21.1.21.23,0,.31-.26.89-.88.89-.18,0-.34-.05-.46-.14-.17.1-.37.16-.57.16Z"/>
            <path class="cls-1" d="M6.51,11.6c.55,0,.98.28.98.79,0,.23-.09.52-.09.67,0,.12.06.23.21.23,0,.18-.17.64-.63.64-.16,0-.34-.06-.44-.23-.15.16-.36.25-.59.25-.34,0-.65-.2-.65-.59s.28-.67.72-.67c.2,0,.42.06.59.16.05-.12.08-.26.08-.38,0-.17-.06-.27-.16-.27-.08,0-.14.06-.14.15,0,.07.04.13.08.16-.04.06-.16.16-.35.16-.29,0-.48-.2-.48-.46,0-.34.33-.62.87-.62M6.15,13.27c.09,0,.18-.04.26-.12-.09-.05-.19-.08-.26-.08-.08,0-.13.04-.13.1,0,.06.05.1.13.1M6.51,11.1c-.9,0-1.37.56-1.37,1.12,0,.1.01.2.04.29-.24.21-.38.51-.38.86,0,.63.48,1.09,1.15,1.09.2,0,.39-.04.56-.12.14.07.3.11.47.11.74,0,1.13-.66,1.13-1.14,0-.16-.07-.3-.19-.39,0,0,0-.01,0-.02.03-.14.06-.32.06-.5,0-.76-.61-1.29-1.48-1.29h0Z"/>
          </g>
          <g>
            <path class="cls-2" d="M9.6,14.19c-.22,0-.41-.09-.54-.23-.15.14-.35.23-.59.23-.45,0-.77-.32-.77-.76,0-.18.07-.38.13-.57.05-.15.11-.31.11-.42,0-.08-.01-.11-.01-.11-.07,0-.11-.01-.16-.06s-.06-.1-.05-.17c0-.36.33-.66.7-.66.18,0,.35.07.48.18.21-.18.47-.28.72-.28.48,0,.83.36.83.86,0,.2-.05.4-.1.57-.03.11-.06.22-.06.28.07,0,.12.03.16.08.05.05.05.12.05.19-.03.51-.42.88-.91.88Z"/>
            <path class="cls-1" d="M9.62,11.6c.37,0,.58.27.58.61,0,.3-.16.64-.16.85,0,.14.05.25.21.25-.02.34-.27.64-.66.64-.28,0-.47-.2-.47-.5,0-.36.23-.78.23-1.05,0-.12-.05-.18-.13-.18-.18,0-.35.41-.35.75,0,.23.08.38.23.42-.04.29-.29.56-.63.56-.28,0-.52-.17-.52-.51,0-.28.24-.7.24-.99,0-.22-.07-.33-.23-.33,0-.23.21-.42.45-.42.2,0,.38.11.46.33.17-.23.44-.43.75-.43M9.62,11.1c-.25,0-.5.08-.73.22-.14-.08-.31-.12-.48-.12-.51,0-.94.41-.95.91,0,.13.05.26.14.36.02.02.05.04.07.06-.02.09-.05.19-.08.26-.07.21-.15.43-.15.65,0,.58.43,1.01,1.02,1.01.21,0,.4-.06.57-.16.15.1.34.16.55.16.63,0,1.12-.47,1.16-1.11,0-.14-.04-.27-.13-.37-.01-.02-.03-.03-.05-.04,0-.03.01-.06.02-.08.05-.18.11-.4.11-.63,0-.64-.45-1.11-1.08-1.11h0Z"/>
          </g>
          <g>
            <path class="cls-2" d="M11.31,14.21c-.53,0-.9-.35-.9-.84,0-.34.17-.63.44-.78-.06-.11-.1-.24-.1-.38,0-.51.46-.87,1.12-.87.73,0,1.23.42,1.23,1.04,0,.15-.03.31-.06.46-.02.09-.03.16-.03.22.14,0,.21.1.21.23,0,.31-.26.89-.88.89-.18,0-.34-.05-.46-.14-.17.1-.37.16-.57.16Z"/>
            <path class="cls-1" d="M11.88,11.6c.55,0,.98.28.98.79,0,.23-.09.52-.09.67,0,.12.06.23.21.23,0,.18-.17.64-.63.64-.16,0-.34-.06-.44-.23-.15.16-.36.25-.59.25-.34,0-.65-.2-.65-.59s.28-.67.72-.67c.2,0,.42.06.59.16.05-.12.08-.26.08-.38,0-.17-.06-.27-.16-.27-.08,0-.14.06-.14.15,0,.07.04.13.08.16-.04.06-.16.16-.35.16-.29,0-.48-.2-.48-.46,0-.34.33-.62.87-.62M11.52,13.27c.09,0,.18-.04.26-.12-.09-.05-.19-.08-.26-.08-.08,0-.13.04-.13.1,0,.06.05.1.13.1M11.88,11.1c-.9,0-1.37.56-1.37,1.12,0,.1.01.2.04.29-.24.21-.38.51-.38.86,0,.63.48,1.09,1.15,1.09.2,0,.39-.04.56-.12.14.07.3.11.47.11.74,0,1.13-.66,1.13-1.14,0-.16-.07-.3-.19-.39,0,0,0-.01,0-.02.03-.14.06-.32.06-.5,0-.76-.61-1.29-1.48-1.29h0Z"/>
          </g>
        </g>
        <g>
          <g>
            <path class="cls-5" d="M27.23,14.04c-.54,0-.94-.42-.94-.99,0-.2.06-.46.15-.72-.47-.01-.89-.49-.89-1,0-.63.47-1.06,1.13-1.06.34,0,.6.1.83.18.19.07.35.13.54.13,0-.14.14-.31.28-.31.46,0,.87.42.87.9,0,.54-.41.95-.95.95-.05,0-.1,0-.14,0-.08.29-.13.55-.13.71.07,0,.17.05.21.1.05.06.09.15.08.22-.09.54-.5.9-1.03.9Z"/>
            <path class="cls-1" d="M28.33,10.51c.34,0,.62.33.62.65,0,.4-.29.7-.7.7-.12,0-.23,0-.32-.02-.12.37-.2.75-.2.98,0,.25.15.28.3.28-.07.39-.35.69-.79.69-.41,0-.69-.31-.69-.74,0-.35.23-1.02.53-1.44-.05,0-.1,0-.15,0-.35,0-.46.22-.46.48-.34,0-.66-.38-.66-.75,0-.45.31-.81.88-.81s.89.31,1.36.31c.17,0,.28-.11.28-.31M28.33,10.01c-.2,0-.37.12-.45.29-.08-.02-.17-.05-.27-.09-.24-.09-.53-.2-.92-.2-.8,0-1.38.55-1.38,1.31,0,.54.36,1.03.82,1.19-.05.2-.08.38-.08.53,0,.71.51,1.24,1.19,1.24s1.16-.44,1.28-1.1c.03-.15-.01-.29-.11-.41-.05-.05-.1-.1-.17-.13.01-.08.03-.18.06-.29.66-.03,1.15-.53,1.15-1.2,0-.62-.51-1.15-1.12-1.15h0Z"/>
          </g>
          <g>
            <path class="cls-5" d="M29.52,14.02c-.53,0-.9-.35-.9-.84,0-.34.17-.63.44-.78-.06-.11-.1-.24-.1-.38,0-.51.46-.87,1.12-.87.73,0,1.23.42,1.23,1.04,0,.15-.03.31-.06.46-.02.09-.03.16-.03.22.14,0,.21.1.21.23,0,.31-.26.89-.88.89-.18,0-.34-.05-.46-.14-.17.1-.37.16-.57.16Z"/>
            <path class="cls-1" d="M30.08,11.41c.55,0,.98.28.98.79,0,.23-.09.52-.09.67,0,.12.06.23.21.23,0,.18-.17.64-.63.64-.16,0-.34-.06-.44-.23-.15.16-.36.25-.59.25-.34,0-.65-.2-.65-.59s.28-.67.72-.67c.2,0,.42.06.59.16.05-.12.08-.26.08-.38,0-.17-.06-.27-.16-.27-.08,0-.14.06-.14.15,0,.07.04.13.08.16-.04.06-.16.16-.35.16-.29,0-.48-.2-.48-.46,0-.34.33-.62.87-.62M29.72,13.09c.09,0,.18-.04.26-.12-.09-.05-.19-.08-.26-.08-.08,0-.13.04-.13.1,0,.06.05.1.13.1M30.08,10.91c-.9,0-1.37.56-1.37,1.12,0,.1.01.2.04.29-.24.21-.38.51-.38.86,0,.63.48,1.09,1.15,1.09.2,0,.39-.04.56-.12.14.07.3.11.47.11.74,0,1.13-.66,1.13-1.14,0-.16-.07-.3-.19-.39,0,0,0-.01,0-.02.03-.14.06-.32.06-.5,0-.76-.61-1.29-1.48-1.29h0Z"/>
          </g>
          <g>
            <path class="cls-5" d="M33.12,14.01c-.22,0-.41-.09-.54-.23-.15.14-.35.23-.59.23-.45,0-.77-.32-.77-.76,0-.18.07-.38.13-.57.05-.15.11-.31.11-.42,0-.08-.01-.11-.01-.11-.07,0-.11-.01-.16-.06s-.06-.1-.05-.17c0-.36.33-.66.7-.66.18,0,.35.07.48.18.21-.18.47-.28.72-.28.48,0,.83.36.83.86,0,.2-.05.4-.1.57-.03.11-.06.22-.06.28.07,0,.12.03.16.08.05.05.05.12.05.19-.03.51-.42.88-.91.88Z"/>
            <path class="cls-1" d="M33.14,11.41c.37,0,.58.27.58.61,0,.3-.16.64-.16.85,0,.14.05.25.21.25-.02.34-.27.64-.66.64-.28,0-.47-.2-.47-.5,0-.36.23-.78.23-1.05,0-.12-.05-.18-.13-.18-.18,0-.35.41-.35.75,0,.23.08.38.23.42-.04.29-.29.56-.63.56-.28,0-.52-.17-.52-.51,0-.28.24-.7.24-.99,0-.22-.07-.33-.23-.33,0-.23.21-.42.45-.42.2,0,.38.11.46.33.17-.23.44-.43.75-.43M33.14,10.91c-.25,0-.5.08-.73.22-.14-.08-.31-.12-.48-.12-.51,0-.94.41-.95.91,0,.13.05.26.14.36.02.02.05.04.07.06-.02.09-.05.19-.08.26-.07.21-.15.43-.15.65,0,.58.43,1.01,1.02,1.01.21,0,.4-.06.57-.16.15.1.34.16.55.16.63,0,1.12-.47,1.16-1.11,0-.14-.04-.27-.13-.37-.01-.02-.03-.03-.05-.04,0-.03.01-.06.02-.08.05-.18.11-.4.11-.63,0-.64-.45-1.11-1.08-1.11h0Z"/>
          </g>
          <g>
            <path class="cls-5" d="M35.53,14.91c-.06,0-.12-.02-.17-.07-.04-.03-.06-.08-.07-.12-.07,0-.12.01-.19.02-.12.02-.26.05-.4.05-.65,0-.94-.46-.94-.91,0-.3.13-.58.37-.8-.08-.15-.12-.31-.12-.49,0-.67.46-1.21,1.12-1.36,0-.04,0-.08,0-.12,0-.46.38-.84.86-.84s.85.35.85.82c0,.27-.09.53-.27.73.06.13.09.28.09.43,0,.47-.18.84-.5,1.08.19.14.31.37.31.65,0,.51-.36.88-.9.92,0,0-.01,0-.02,0Z"/>
            <path class="cls-1" d="M35.97,10.52c.35,0,.6.23.6.57,0,.27-.12.51-.33.68.09.13.15.29.15.48,0,.71-.5,1.13-1.24,1.13-.15,0-.28-.02-.4-.07,0,.02-.01.05-.01.07,0,.08.05.13.2.13.19,0,.44-.09.68-.09.3,0,.58.17.58.56s-.27.64-.67.67c0-.13-.11-.19-.23-.19-.16,0-.36.07-.6.07-.5,0-.69-.33-.69-.66,0-.36.24-.61.46-.74-.13-.14-.21-.32-.21-.55,0-.62.49-1.15,1.25-1.15.16,0,.31.03.44.1-.05-.16-.17-.24-.35-.24-.06,0-.12,0-.19.03-.03-.07-.04-.15-.04-.22,0-.33.28-.59.61-.59M35.28,12.89c.21,0,.29-.39.29-.61s-.09-.27-.16-.27c-.18,0-.31.34-.31.6,0,.17.06.28.17.28M35.97,10.02c-.59,0-1.07.45-1.1,1.02-.66.23-1.11.82-1.11,1.54,0,.16.02.3.07.44-.21.24-.32.54-.32.85,0,.56.37,1.16,1.19,1.16.17,0,.33-.03.45-.05,0,0,0,0,0,0,.01.01.02.03.04.04.09.09.21.13.34.13.01,0,.03,0,.04,0,.66-.05,1.13-.53,1.13-1.17,0-.25-.07-.46-.2-.64.25-.28.39-.65.39-1.09,0-.14-.02-.27-.06-.39.15-.23.24-.49.24-.77,0-.61-.47-1.07-1.1-1.07h0Z"/>
          </g>
          <g>
            <path class="cls-5" d="M37.79,14.06c-.71,0-1.19-.48-1.19-1.21,0-.92.71-1.66,1.58-1.66.71,0,1.15.45,1.15,1.18,0,.93-.69,1.68-1.54,1.68ZM38.01,12.45c-.04.09-.07.21-.08.33.04-.08.07-.2.08-.33Z"/>
            <path class="cls-1" d="M38.18,11.44c.52,0,.9.3.9.93,0,.74-.53,1.43-1.29,1.43-.55,0-.94-.36-.94-.96,0-.72.56-1.41,1.33-1.41M37.86,13.14c.22,0,.4-.4.4-.77,0-.22-.06-.32-.17-.32-.23,0-.41.43-.41.77,0,.22.08.31.18.31M38.18,10.94c-1.01,0-1.83.86-1.83,1.91,0,.86.59,1.46,1.44,1.46.99,0,1.79-.87,1.79-1.93,0-.86-.56-1.43-1.4-1.43h0Z"/>
          </g>
        </g>
        <g>
          <g>
            <path class="cls-6" d="M16.69,14.22c-.28,0-.6-.09-.83-.4-.2.25-.5.4-.84.4-.46,0-.78-.35-.78-.86,0-.3.08-.65.16-1,.07-.33.15-.67.15-.94-.07,0-.12-.03-.17-.08-.05-.05-.05-.12-.04-.2.05-.41.44-.72.92-.72.4,0,.69.19.81.51.14-.31.51-.5.85-.5.55,0,.91.35.91.9s-.44,1.02-.95,1.29c.05.04.1.07.15.07.02-.07.06-.11.13-.14.02,0,.04-.01.07-.01.04,0,.08.02.13.04.22.12.34.35.34.65,0,.54-.45.99-1,.99ZM16.12,11.42c-.01.1-.03.21-.06.33.07-.09.12-.2.12-.28-.02-.01-.04-.03-.05-.05Z"/>
            <path class="cls-1" d="M15.26,10.67c.34,0,.62.18.62.62,0,.18-.08.48-.17.81.05-.04.12-.06.19-.06.06,0,.12.02.17.05.19-.15.35-.4.35-.62,0-.12-.05-.22-.17-.3.02-.29.36-.49.66-.49.38,0,.66.2.66.65,0,.51-.52.98-1.1,1.2.15.21.32.41.56.41.11,0,.17-.06.2-.14.17.09.21.28.21.43,0,.42-.34.74-.75.74-.74,0-.89-.77-.92-1.31-.06,0-.13-.02-.18-.05-.03.16-.05.3-.05.43,0,.24.16.27.3.27-.08.37-.4.67-.82.67s-.53-.34-.53-.61c0-.54.3-1.36.3-1.93,0-.14-.05-.25-.21-.25.03-.28.32-.5.67-.5M15.26,10.17c-.6,0-1.11.41-1.17.95-.02.14.03.28.12.39.02.03.05.05.08.07-.02.22-.08.48-.13.73-.08.36-.16.73-.16,1.05,0,.66.42,1.11,1.03,1.11.32,0,.61-.11.84-.29.3.25.63.29.83.29.69,0,1.25-.56,1.25-1.24,0-.35-.13-.63-.37-.81.3-.29.5-.67.5-1.09,0-.69-.47-1.15-1.16-1.15-.29,0-.6.11-.83.31-.2-.21-.48-.33-.83-.33h0Z"/>
          </g>
          <g>
            <path class="cls-6" d="M18.63,14.13c-.48,0-.82-.32-.82-.77,0-.3.14-.55.38-.7-.05-.09-.08-.2-.08-.32,0-.47.42-.79,1.02-.79.67,0,1.11.38,1.11.95,0,.13-.03.28-.05.41-.01.08-.03.14-.03.19.14,0,.19.07.19.21,0,.28-.24.82-.8.82-.15,0-.29-.04-.41-.12-.15.09-.32.13-.5.13Z"/>
            <path class="cls-1" d="M19.12,11.8c.48,0,.86.25.86.7,0,.21-.08.46-.08.59,0,.1.05.21.19.21,0,.16-.15.57-.55.57-.14,0-.3-.05-.39-.2-.13.14-.32.22-.52.22-.3,0-.57-.18-.57-.52s.25-.59.63-.59c.18,0,.37.06.52.14.04-.11.07-.23.07-.34,0-.15-.05-.23-.14-.23-.07,0-.13.06-.13.13,0,.06.04.12.07.14-.03.06-.14.14-.31.14-.26,0-.42-.18-.42-.41,0-.3.29-.54.77-.54M18.8,13.27c.08,0,.16-.04.23-.1-.08-.04-.17-.07-.23-.07-.07,0-.12.04-.12.09,0,.05.04.09.12.09M19.12,11.3c-.83,0-1.27.52-1.27,1.04,0,.08.01.16.03.24-.21.19-.33.47-.33.78,0,.59.45,1.02,1.07,1.02.17,0,.34-.04.5-.1.13.06.27.09.41.09.69,0,1.05-.62,1.05-1.07,0-.14-.06-.27-.16-.36.02-.13.05-.28.05-.44,0-.71-.56-1.2-1.36-1.2h0Z"/>
          </g>
          <g>
            <path class="cls-6" d="M20.99,14.11c-.39,0-.67-.29-.67-.7,0-.16.06-.33.12-.5.05-.14.1-.28.1-.37-.07,0-.11-.05-.16-.1-.05-.05-.05-.14-.04-.21.02-.34.31-.61.66-.61.15,0,.3.05.41.13.17-.15.38-.22.6-.22.46,0,.78.31.78.75,0,.49-.34.82-.85.82-.08,0-.17-.01-.25-.04,0,.03.02.05.03.05.1.05.16.16.14.27-.06.35-.38.71-.87.71Z"/>
            <path class="cls-1" d="M22.01,11.8c.3,0,.53.18.53.51s-.21.57-.6.57c-.11,0-.23-.04-.29-.1.05-.05.09-.15.09-.22,0-.09-.04-.15-.1-.15-.13,0-.22.35-.22.58,0,.17.07.32.19.37-.05.25-.27.51-.62.51-.25,0-.42-.17-.42-.45,0-.25.21-.61.21-.87,0-.17-.07-.29-.2-.29.01-.21.2-.37.41-.37.17,0,.33.09.41.27.13-.19.33-.36.61-.36M22.01,11.3c-.22,0-.43.06-.62.18-.12-.06-.26-.09-.4-.09-.48,0-.88.37-.91.84,0,.14.04.27.14.37.01.02.03.03.05.04-.02.06-.04.14-.06.19-.06.19-.13.38-.13.58,0,.54.4.95.92.95.62,0,1.03-.46,1.11-.92,0-.03,0-.06,0-.08.56-.07.93-.49.93-1.06s-.43-1.01-1.03-1.01h0Z"/>
          </g>
          <g>
            <path class="cls-6" d="M23.34,14.13c-.48,0-.82-.33-.82-.77,0-.3.15-.55.38-.7-.05-.09-.08-.2-.08-.32,0-.47.42-.79,1.02-.79.67,0,1.11.38,1.11.95,0,.13-.03.28-.05.41-.01.07-.03.14-.03.19.14,0,.19.07.19.21,0,.28-.24.82-.8.82-.15,0-.29-.04-.41-.12-.15.09-.32.13-.5.13Z"/>
            <path class="cls-1" d="M23.84,11.8c.48,0,.86.25.86.7,0,.21-.08.46-.08.59,0,.1.05.21.19.21,0,.16-.15.57-.55.57-.14,0-.3-.05-.39-.2-.13.14-.32.22-.52.22-.3,0-.57-.18-.57-.52s.25-.59.63-.59c.18,0,.37.06.52.14.04-.11.07-.23.07-.34,0-.15-.05-.23-.14-.23-.07,0-.13.06-.13.13,0,.06.04.12.07.14-.03.06-.14.14-.31.14-.26,0-.42-.18-.42-.41,0-.3.29-.54.77-.54M23.52,13.27c.08,0,.16-.04.23-.1-.08-.04-.17-.07-.23-.07-.07,0-.12.04-.12.09,0,.05.04.09.12.09M23.84,11.3c-.83,0-1.27.52-1.27,1.04,0,.08.01.16.03.24-.21.19-.33.47-.33.78,0,.59.45,1.02,1.07,1.02.17,0,.34-.04.5-.1.13.06.27.09.41.09.69,0,1.05-.62,1.05-1.07,0-.14-.06-.27-.16-.36.02-.13.05-.28.05-.44,0-.71-.56-1.2-1.36-1.2h0Z"/>
          </g>
        </g>
      </g>
    </g>
  </g>
</svg>